# Compact triangulated authored enemy model: enemy_chaser
mtllib enemy_chaser.mtl
s off

v -4.003988 22.000000 36.119637
v -4.243731 19.000000 39.110043
v -7.234137 22.000000 38.870296
v -6.721087 19.000000 70.010895
v -6.960831 22.000000 73.001305
v -9.711493 22.000000 69.771149
v -4.003988 30.000000 36.119637
v -7.234137 30.000000 38.870296
v -4.243731 33.000000 39.110043
v -6.960831 30.000000 73.001305
v -6.721087 33.000000 70.010895
v -9.711493 30.000000 69.771149
v 6.960831 22.000000 36.998699
v 9.711493 22.000000 40.228848
v 6.721087 19.000000 39.989105
v 4.003988 22.000000 73.880363
v 4.243731 19.000000 70.889961
v 7.234137 22.000000 71.129700
v 6.960831 30.000000 36.998699
v 6.721087 33.000000 39.989105
v 9.711493 30.000000 40.228848
v 4.003988 30.000000 73.880363
v 7.234137 30.000000 71.129700
v 4.243731 33.000000 70.889961
v -4.003988 -30.000000 36.119637
v -4.243731 -33.000000 39.110043
v -7.234137 -30.000000 38.870296
v -6.721087 -33.000000 70.010895
v -6.960831 -30.000000 73.001305
v -9.711493 -30.000000 69.771149
v -4.003988 -22.000000 36.119637
v -7.234137 -22.000000 38.870296
v -4.243731 -19.000000 39.110043
v -6.960831 -22.000000 73.001305
v -6.721087 -19.000000 70.010895
v -9.711493 -22.000000 69.771149
v 6.960831 -30.000000 36.998699
v 9.711493 -30.000000 40.228848
v 6.721087 -33.000000 39.989105
v 4.003988 -30.000000 73.880363
v 4.243731 -33.000000 70.889961
v 7.234137 -30.000000 71.129700
v 6.960831 -22.000000 36.998699
v 6.721087 -19.000000 39.989105
v 9.711493 -22.000000 40.228848
v 4.003988 -22.000000 73.880363
v 7.234137 -22.000000 71.129700
v 4.243731 -19.000000 70.889961
v -22.000000 0.000000 52.000000
v -17.296600 -6.045780 59.738991
v -23.796503 -9.782360 59.738991
v -17.296600 6.045780 59.738991
v -27.813763 0.000000 59.738991
v -23.796503 9.782360 59.738991
v -16.186237 0.000000 72.261009
v -20.203497 -9.782360 72.261009
v -26.703400 -6.045780 72.261009
v -26.703400 6.045780 72.261009
v -20.203497 9.782360 72.261009
v -22.000000 0.000000 80.000000
v 13.000000 -17.000000 51.000000
v 9.000000 0.000000 51.000000
v 13.000000 17.000000 51.000000
v 20.000000 11.000000 51.000000
v 20.000000 -11.000000 51.000000
v 9.000000 0.000000 79.000000
v 13.000000 -17.000000 79.000000
v 20.000000 -11.000000 79.000000
v 20.000000 11.000000 79.000000
v 13.000000 17.000000 79.000000
v 13.900000 -10.600000 88.500000
v 13.900000 -12.000000 89.900002
v 12.500000 -10.600000 89.900002
v 13.900000 -12.000000 100.099998
v 13.900000 -10.600000 101.500000
v 12.500000 -10.600000 100.099998
v 13.900000 10.600000 88.500000
v 12.500000 10.600000 89.900002
v 13.900000 12.000000 89.900002
v 13.900000 10.600000 101.500000
v 13.900000 12.000000 100.099998
v 12.500000 10.600000 100.099998
v 16.100000 -10.600000 88.500000
v 17.500000 -10.600000 89.900002
v 16.100000 -12.000000 89.900002
v 16.100000 -10.600000 101.500000
v 16.100000 -12.000000 100.099998
v 17.500000 -10.600000 100.099998
v 16.100000 10.600000 88.500000
v 16.100000 12.000000 89.900002
v 17.500000 10.600000 89.900002
v 16.100000 10.600000 101.500000
v 17.500000 10.600000 100.099998
v 16.100000 12.000000 100.099998
v 10.000000 26.000000 22.000000
v 18.321400 21.268520 27.527851
v 6.821572 18.344240 27.527851
v 18.321400 30.731480 27.527851
v -0.285887 26.000000 27.527851
v 6.821572 33.655762 27.527851
v 20.285887 26.000000 36.472149
v 13.178428 18.344240 36.472149
v 1.678600 21.268520 36.472149
v 1.678600 30.731480 36.472149
v 13.178428 33.655762 36.472149
v 10.000000 26.000000 42.000000
v 10.000000 -26.000000 22.000000
v 18.321400 -30.731480 27.527851
v 6.821572 -33.655762 27.527851
v 18.321400 -21.268520 27.527851
v -0.285887 -26.000000 27.527851
v 6.821572 -18.344240 27.527851
v 20.285887 -26.000000 36.472149
v 13.178428 -33.655762 36.472149
v 1.678600 -30.731480 36.472149
v 1.678600 -21.268520 36.472149
v 13.178428 -18.344240 36.472149
v 10.000000 -26.000000 42.000000
v -7.200000 4.800000 0.000000
v -7.200000 3.000000 1.800000
v -9.000000 4.800000 1.800000
v -7.200000 3.000000 10.200000
v -7.200000 4.800000 12.000000
v -9.000000 4.800000 10.200000
v -7.200000 19.200001 0.000000
v -9.000000 19.200001 1.800000
v -7.200000 21.000000 1.800000
v -7.200000 19.200001 12.000000
v -7.200000 21.000000 10.200000
v -9.000000 19.200001 10.200000
v 17.200001 4.800000 0.000000
v 19.000000 4.800000 1.800000
v 17.200001 3.000000 1.800000
v 17.200001 4.800000 12.000000
v 17.200001 3.000000 10.200000
v 19.000000 4.800000 10.200000
v 17.200001 19.200001 0.000000
v 17.200001 21.000000 1.800000
v 19.000000 19.200001 1.800000
v 17.200001 19.200001 12.000000
v 19.000000 19.200001 10.200000
v 17.200001 21.000000 10.200000
v -7.200000 -19.200001 0.000000
v -7.200000 -21.000000 1.800000
v -9.000000 -19.200001 1.800000
v -7.200000 -21.000000 10.200000
v -7.200000 -19.200001 12.000000
v -9.000000 -19.200001 10.200000
v -7.200000 -4.800000 0.000000
v -9.000000 -4.800000 1.800000
v -7.200000 -3.000000 1.800000
v -7.200000 -4.800000 12.000000
v -7.200000 -3.000000 10.200000
v -9.000000 -4.800000 10.200000
v 17.200001 -19.200001 0.000000
v 19.000000 -19.200001 1.800000
v 17.200001 -21.000000 1.800000
v 17.200001 -19.200001 12.000000
v 17.200001 -21.000000 10.200000
v 19.000000 -19.200001 10.200000
v 17.200001 -4.800000 0.000000
v 17.200001 -3.000000 1.800000
v 19.000000 -4.800000 1.800000
v 17.200001 -4.800000 12.000000
v 19.000000 -4.800000 10.200000
v 17.200001 -3.000000 10.200000
v 1.000000 0.000000 82.500000
v 6.954517 -4.789677 84.366821
v -1.274378 -7.749927 84.366821
v 11.130503 -8.148743 89.409760
v 12.909070 0.000000 88.428299
v -6.360217 0.000000 84.366852
v -1.274378 7.749927 84.366821
v 6.954517 4.789677 84.366821
v 14.314810 -4.789696 95.000000
v -2.869432 -13.185063 89.409752
v 4.680163 -12.539680 88.428276
v 1.000000 -15.499999 95.000000
v -11.521967 0.000000 89.409805
v -8.634651 -7.749952 88.428299
v -12.314810 -4.789696 95.000000
v -2.869432 13.185063 89.409752
v -8.634651 7.749952 88.428299
v -7.228998 12.539759 95.000000
v 11.130503 8.148743 89.409760
v 4.680163 12.539680 88.428276
v 9.228998 12.539759 95.000000
v 9.228998 -12.539759 95.000000
v -7.228998 -12.539759 95.000000
v -12.314810 4.789696 95.000000
v 1.000000 15.499999 95.000000
v 14.314810 4.789696 95.000000
v 4.869432 -13.185063 100.590248
v 10.634651 -7.749952 101.571701
v 3.274378 -7.749927 105.633179
v -9.130503 -8.148743 100.590240
v -2.680163 -12.539680 101.571724
v -4.954517 -4.789677 105.633179
v -9.130503 8.148743 100.590240
v -10.909070 0.000000 101.571701
v -4.954517 4.789677 105.633179
v 4.869432 13.185063 100.590248
v -2.680163 12.539680 101.571724
v 3.274378 7.749927 105.633179
v 13.521967 0.000000 100.590195
v 10.634651 7.749952 101.571701
v 8.360217 0.000000 105.633148
v 1.000000 0.000000 107.500000
v -0.500000 5.000000 24.500000
v -0.500000 3.000000 26.500000
v -2.500000 5.000000 26.500000
v -0.500000 3.000000 35.500000
v -0.500000 5.000000 37.500000
v -2.500000 5.000000 35.500000
v -0.500000 19.000000 24.500000
v -2.500000 19.000000 26.500000
v -0.500000 21.000000 26.500000
v -0.500000 19.000000 37.500000
v -0.500000 21.000000 35.500000
v -2.500000 19.000000 35.500000
v 10.500000 5.000000 24.500000
v 12.500000 5.000000 26.500000
v 10.500000 3.000000 26.500000
v 10.500000 5.000000 37.500000
v 10.500000 3.000000 35.500000
v 12.500000 5.000000 35.500000
v 10.500000 19.000000 24.500000
v 10.500000 21.000000 26.500000
v 12.500000 19.000000 26.500000
v 10.500000 19.000000 37.500000
v 12.500000 19.000000 35.500000
v 10.500000 21.000000 35.500000
v -0.500000 -19.000000 24.500000
v -0.500000 -21.000000 26.500000
v -2.500000 -19.000000 26.500000
v -0.500000 -21.000000 35.500000
v -0.500000 -19.000000 37.500000
v -2.500000 -19.000000 35.500000
v -0.500000 -5.000000 24.500000
v -2.500000 -5.000000 26.500000
v -0.500000 -3.000000 26.500000
v -0.500000 -5.000000 37.500000
v -0.500000 -3.000000 35.500000
v -2.500000 -5.000000 35.500000
v 10.500000 -19.000000 24.500000
v 12.500000 -19.000000 26.500000
v 10.500000 -21.000000 26.500000
v 10.500000 -19.000000 37.500000
v 10.500000 -21.000000 35.500000
v 12.500000 -19.000000 35.500000
v 10.500000 -5.000000 24.500000
v 10.500000 -3.000000 26.500000
v 12.500000 -5.000000 26.500000
v 10.500000 -5.000000 37.500000
v 12.500000 -5.000000 35.500000
v 10.500000 -3.000000 35.500000
v -10.800000 6.200000 9.000000
v -10.800000 4.000000 11.200000
v -13.000000 6.200000 11.200000
v -10.800000 4.000000 36.799999
v -10.800000 6.200000 39.000000
v -13.000000 6.200000 36.799999
v -10.800000 17.799999 9.000000
v -13.000000 17.799999 11.200000
v -10.800000 20.000000 11.200000
v -10.800000 17.799999 39.000000
v -10.800000 20.000000 36.799999
v -13.000000 17.799999 36.799999
v 2.800000 6.200000 9.000000
v 5.000000 6.200000 11.200000
v 2.800000 4.000000 11.200000
v 2.800000 6.200000 39.000000
v 2.800000 4.000000 36.799999
v 5.000000 6.200000 36.799999
v 2.800000 17.799999 9.000000
v 2.800000 20.000000 11.200000
v 5.000000 17.799999 11.200000
v 2.800000 17.799999 39.000000
v 5.000000 17.799999 36.799999
v 2.800000 20.000000 36.799999
v -10.800000 -17.799999 9.000000
v -10.800000 -20.000000 11.200000
v -13.000000 -17.799999 11.200000
v -10.800000 -20.000000 36.799999
v -10.800000 -17.799999 39.000000
v -13.000000 -17.799999 36.799999
v -10.800000 -6.200000 9.000000
v -13.000000 -6.200000 11.200000
v -10.800000 -4.000000 11.200000
v -10.800000 -6.200000 39.000000
v -10.800000 -4.000000 36.799999
v -13.000000 -6.200000 36.799999
v 2.800000 -17.799999 9.000000
v 5.000000 -17.799999 11.200000
v 2.800000 -20.000000 11.200000
v 2.800000 -17.799999 39.000000
v 2.800000 -20.000000 36.799999
v 5.000000 -17.799999 36.799999
v 2.800000 -6.200000 9.000000
v 2.800000 -4.000000 11.200000
v 5.000000 -6.200000 11.200000
v 2.800000 -6.200000 39.000000
v 5.000000 -6.200000 36.799999
v 2.800000 -4.000000 36.799999
v -13.500000 -15.000000 34.500000
v -13.500000 -18.000000 37.500000
v -16.500000 -15.000000 37.500000
v -13.500000 -18.000000 48.500000
v -13.500000 -15.000000 51.500000
v -16.500000 -15.000000 48.500000
v -13.500000 15.000000 34.500000
v -16.500000 15.000000 37.500000
v -13.500000 18.000000 37.500000
v -13.500000 15.000000 51.500000
v -13.500000 18.000000 48.500000
v -16.500000 15.000000 48.500000
v 5.500000 -15.000000 34.500000
v 8.500000 -15.000000 37.500000
v 5.500000 -18.000000 37.500000
v 5.500000 -15.000000 51.500000
v 5.500000 -18.000000 48.500000
v 8.500000 -15.000000 48.500000
v 5.500000 15.000000 34.500000
v 5.500000 18.000000 37.500000
v 8.500000 15.000000 37.500000
v 5.500000 15.000000 51.500000
v 8.500000 15.000000 48.500000
v 5.500000 18.000000 48.500000
v -2.000000 31.000000 86.000000
v -2.000000 26.000000 102.000000
v 2.330127 28.500000 86.000000
v 2.330127 23.500000 86.000000
v -2.000000 21.000000 86.000000
v -6.330127 23.500000 86.000000
v -6.330127 28.500000 86.000000
v -2.000000 -21.000000 86.000000
v -2.000000 -26.000000 102.000000
v 2.330127 -23.500000 86.000000
v 2.330127 -28.500000 86.000000
v -2.000000 -31.000000 86.000000
v -6.330127 -28.500000 86.000000
v -6.330127 -23.500000 86.000000
v -10.167513 20.000000 67.318527
v -10.526649 17.000000 70.296959
v -13.505075 20.000000 69.937820
v -12.322332 17.000000 85.189087
v -12.681469 20.000000 88.167511
v -15.300758 20.000000 84.829948
v -10.167513 32.000000 67.318527
v -13.505075 32.000000 69.937820
v -10.526649 35.000000 70.296959
v -12.681469 32.000000 88.167511
v -12.322332 35.000000 85.189087
v -15.300758 32.000000 84.829948
v 10.681469 20.000000 69.832489
v 13.300758 20.000000 73.170052
v 10.322332 17.000000 72.810913
v 8.167513 20.000000 90.681473
v 8.526649 17.000000 87.703041
v 11.505075 20.000000 88.062180
v 10.681469 32.000000 69.832489
v 10.322332 35.000000 72.810913
v 13.300758 32.000000 73.170052
v 8.167513 32.000000 90.681473
v 11.505075 32.000000 88.062180
v 8.526649 35.000000 87.703041
v -10.167513 -32.000000 67.318527
v -10.526649 -35.000000 70.296959
v -13.505075 -32.000000 69.937820
v -12.322332 -35.000000 85.189087
v -12.681469 -32.000000 88.167511
v -15.300758 -32.000000 84.829948
v -10.167513 -20.000000 67.318527
v -13.505075 -20.000000 69.937820
v -10.526649 -17.000000 70.296959
v -12.681469 -20.000000 88.167511
v -12.322332 -17.000000 85.189087
v -15.300758 -20.000000 84.829948
v 10.681469 -32.000000 69.832489
v 13.300758 -32.000000 73.170052
v 10.322332 -35.000000 72.810913
v 8.167513 -32.000000 90.681473
v 8.526649 -35.000000 87.703041
v 11.505075 -32.000000 88.062180
v 10.681469 -20.000000 69.832489
v 10.322332 -17.000000 72.810913
v 13.300758 -20.000000 73.170052
v 8.167513 -20.000000 90.681473
v 11.505075 -20.000000 88.062180
v 8.526649 -17.000000 87.703041
v -18.000000 -18.000000 43.500000
v -18.000000 -22.000000 47.500000
v -22.000000 -18.000000 47.500000
v -18.000000 -22.000000 82.500000
v -18.000000 -18.000000 86.500000
v -22.000000 -18.000000 82.500000
v -18.000000 18.000000 43.500000
v -22.000000 18.000000 47.500000
v -18.000000 22.000000 47.500000
v -18.000000 18.000000 86.500000
v -18.000000 22.000000 82.500000
v -22.000000 18.000000 82.500000
v 10.000000 -18.000000 43.500000
v 14.000000 -18.000000 47.500000
v 10.000000 -22.000000 47.500000
v 10.000000 -18.000000 86.500000
v 10.000000 -22.000000 82.500000
v 14.000000 -18.000000 82.500000
v 10.000000 18.000000 43.500000
v 10.000000 22.000000 47.500000
v 14.000000 18.000000 47.500000
v 10.000000 18.000000 86.500000
v 14.000000 18.000000 82.500000
v 10.000000 22.000000 82.500000
v 15.000000 11.000000 88.000000
v 29.000000 8.000000 88.000000
v 15.000000 9.500000 85.401924
v 15.000000 6.500000 85.401924
v 15.000000 5.000000 88.000000
v 15.000000 6.500000 90.598076
v 15.000000 9.500000 90.598076
v 15.000000 -5.000000 88.000000
v 29.000000 -8.000000 88.000000
v 15.000000 -6.500000 85.401924
v 15.000000 -9.500000 85.401924
v 15.000000 -11.000000 88.000000
v 15.000000 -9.500000 90.598076
v 15.000000 -6.500000 90.598076
v 17.850000 -9.000000 97.000000
v 17.850000 -9.500000 97.500000
v 17.350000 -9.000000 97.500000
v 17.850000 -9.500000 100.500000
v 17.850000 -9.000000 101.000000
v 17.350000 -9.000000 100.500000
v 17.850000 9.000000 97.000000
v 17.350000 9.000000 97.500000
v 17.850000 9.500000 97.500000
v 17.850000 9.000000 101.000000
v 17.850000 9.500000 100.500000
v 17.350000 9.000000 100.500000
v 18.350000 -9.000000 97.000000
v 18.850000 -9.000000 97.500000
v 18.350000 -9.500000 97.500000
v 18.350000 -9.000000 101.000000
v 18.350000 -9.500000 100.500000
v 18.850000 -9.000000 100.500000
v 18.350000 9.000000 97.000000
v 18.350000 9.500000 97.500000
v 18.850000 9.000000 97.500000
v 18.350000 9.000000 101.000000
v 18.850000 9.000000 100.500000
v 18.350000 9.500000 100.500000

o Chaser_Arm_Port
usemtl MAT_Chaser_CharcoalJoints
f 1 2 3
f 4 5 6
f 7 8 9
f 10 11 12
f 13 14 15
f 16 17 18
f 19 20 21
f 22 23 24
f 7 1 3
f 7 3 8
f 2 4 6
f 2 6 3
f 5 10 12
f 5 12 6
f 11 9 8
f 11 8 12
f 19 7 9
f 19 9 20
f 10 22 24
f 10 24 11
f 23 21 20
f 23 20 24
f 13 19 21
f 13 21 14
f 22 16 18
f 22 18 23
f 17 15 14
f 17 14 18
f 1 13 15
f 1 15 2
f 16 5 4
f 16 4 17
f 7 19 13
f 7 13 1
f 3 6 12
f 3 12 8
f 15 17 4
f 15 4 2
f 22 10 5
f 22 5 16
f 9 11 24
f 9 24 20
f 21 23 18
f 21 18 14

o Chaser_Arm_Starboard
usemtl MAT_Chaser_CharcoalJoints
f 25 26 27
f 28 29 30
f 31 32 33
f 34 35 36
f 37 38 39
f 40 41 42
f 43 44 45
f 46 47 48
f 31 25 27
f 31 27 32
f 26 28 30
f 26 30 27
f 29 34 36
f 29 36 30
f 35 33 32
f 35 32 36
f 43 31 33
f 43 33 44
f 34 46 48
f 34 48 35
f 47 45 44
f 47 44 48
f 37 43 45
f 37 45 38
f 46 40 42
f 46 42 47
f 41 39 38
f 41 38 42
f 25 37 39
f 25 39 26
f 40 29 28
f 40 28 41
f 31 43 37
f 31 37 25
f 27 30 36
f 27 36 32
f 39 41 28
f 39 28 26
f 46 34 29
f 46 29 40
f 33 35 48
f 33 48 44
f 45 47 42
f 45 42 38

o Chaser_BackReactor
usemtl MAT_Chaser_HotPinkVisor
f 49 50 51
f 50 49 52
f 49 51 53
f 49 53 54
f 49 54 52
f 50 52 55
f 51 50 56
f 53 51 57
f 54 53 58
f 52 54 59
f 50 55 56
f 51 56 57
f 53 57 58
f 54 58 59
f 52 59 55
f 56 55 60
f 57 56 60
f 58 57 60
f 59 58 60
f 55 59 60

o Chaser_ChestPlate
usemtl MAT_Chaser_DeepRedArmor
f 61 62 63
f 63 64 65
f 63 65 61
f 66 67 68
f 68 69 70
f 68 70 66
f 61 65 68
f 61 68 67
f 65 64 69
f 65 69 68
f 64 63 70
f 64 70 69
f 63 62 66
f 63 66 70
f 62 61 67
f 62 67 66

o Chaser_Faceplate
usemtl MAT_Chaser_CrimsonArmor
f 71 72 73
f 74 75 76
f 77 78 79
f 80 81 82
f 83 84 85
f 86 87 88
f 89 90 91
f 92 93 94
f 77 71 73
f 77 73 78
f 72 74 76
f 72 76 73
f 75 80 82
f 75 82 76
f 81 79 78
f 81 78 82
f 89 77 79
f 89 79 90
f 80 92 94
f 80 94 81
f 93 91 90
f 93 90 94
f 83 89 91
f 83 91 84
f 92 86 88
f 92 88 93
f 87 85 84
f 87 84 88
f 71 83 85
f 71 85 72
f 86 75 74
f 86 74 87
f 77 89 83
f 77 83 71
f 73 76 82
f 73 82 78
f 85 87 74
f 85 74 72
f 92 80 75
f 92 75 86
f 79 81 94
f 79 94 90
f 91 93 88
f 91 88 84

o Chaser_Fist_Port
usemtl MAT_Chaser_CrimsonArmor
f 95 96 97
f 96 95 98
f 95 97 99
f 95 99 100
f 95 100 98
f 96 98 101
f 97 96 102
f 99 97 103
f 100 99 104
f 98 100 105
f 96 101 102
f 97 102 103
f 99 103 104
f 100 104 105
f 98 105 101
f 102 101 106
f 103 102 106
f 104 103 106
f 105 104 106
f 101 105 106

o Chaser_Fist_Starboard
usemtl MAT_Chaser_CrimsonArmor
f 107 108 109
f 108 107 110
f 107 109 111
f 107 111 112
f 107 112 110
f 108 110 113
f 109 108 114
f 111 109 115
f 112 111 116
f 110 112 117
f 108 113 114
f 109 114 115
f 111 115 116
f 112 116 117
f 110 117 113
f 114 113 118
f 115 114 118
f 116 115 118
f 117 116 118
f 113 117 118

o Chaser_Foot_Port
usemtl MAT_Chaser_DeepRedArmor
f 119 120 121
f 122 123 124
f 125 126 127
f 128 129 130
f 131 132 133
f 134 135 136
f 137 138 139
f 140 141 142
f 125 119 121
f 125 121 126
f 120 122 124
f 120 124 121
f 123 128 130
f 123 130 124
f 129 127 126
f 129 126 130
f 137 125 127
f 137 127 138
f 128 140 142
f 128 142 129
f 141 139 138
f 141 138 142
f 131 137 139
f 131 139 132
f 140 134 136
f 140 136 141
f 135 133 132
f 135 132 136
f 119 131 133
f 119 133 120
f 134 123 122
f 134 122 135
f 125 137 131
f 125 131 119
f 121 124 130
f 121 130 126
f 133 135 122
f 133 122 120
f 140 128 123
f 140 123 134
f 127 129 142
f 127 142 138
f 139 141 136
f 139 136 132

o Chaser_Foot_Starboard
usemtl MAT_Chaser_DeepRedArmor
f 143 144 145
f 146 147 148
f 149 150 151
f 152 153 154
f 155 156 157
f 158 159 160
f 161 162 163
f 164 165 166
f 149 143 145
f 149 145 150
f 144 146 148
f 144 148 145
f 147 152 154
f 147 154 148
f 153 151 150
f 153 150 154
f 161 149 151
f 161 151 162
f 152 164 166
f 152 166 153
f 165 163 162
f 165 162 166
f 155 161 163
f 155 163 156
f 164 158 160
f 164 160 165
f 159 157 156
f 159 156 160
f 143 155 157
f 143 157 144
f 158 147 146
f 158 146 159
f 149 161 155
f 149 155 143
f 145 148 154
f 145 154 150
f 157 159 146
f 157 146 144
f 164 152 147
f 164 147 158
f 151 153 166
f 151 166 162
f 163 165 160
f 163 160 156

o Chaser_Helmet
usemtl MAT_Chaser_DeepRedArmor
f 167 168 169
f 170 168 171
f 167 169 172
f 167 172 173
f 167 173 174
f 170 171 175
f 176 177 178
f 179 180 181
f 182 183 184
f 185 186 187
f 170 175 188
f 176 178 189
f 179 181 190
f 182 184 191
f 185 187 192
f 193 194 195
f 196 197 198
f 199 200 201
f 202 203 204
f 205 206 207
f 207 204 208
f 207 206 204
f 206 202 204
f 204 201 208
f 204 203 201
f 203 199 201
f 201 198 208
f 201 200 198
f 200 196 198
f 198 195 208
f 198 197 195
f 197 193 195
f 195 207 208
f 195 194 207
f 194 205 207
f 192 206 205
f 192 187 206
f 187 202 206
f 191 203 202
f 191 184 203
f 184 199 203
f 190 200 199
f 190 181 200
f 181 196 200
f 189 197 196
f 189 178 197
f 178 193 197
f 188 194 193
f 188 175 194
f 175 205 194
f 187 191 202
f 187 186 191
f 186 182 191
f 184 190 199
f 184 183 190
f 183 179 190
f 181 189 196
f 181 180 189
f 180 176 189
f 178 188 193
f 178 177 188
f 177 170 188
f 175 192 205
f 175 171 192
f 171 185 192
f 174 186 185
f 174 173 186
f 173 182 186
f 173 183 182
f 173 172 183
f 172 179 183
f 172 180 179
f 172 169 180
f 169 176 180
f 171 174 185
f 171 168 174
f 168 167 174
f 169 177 176
f 169 168 177
f 168 170 177

o Chaser_Knee_Port
usemtl MAT_Chaser_CrimsonArmor
f 209 210 211
f 212 213 214
f 215 216 217
f 218 219 220
f 221 222 223
f 224 225 226
f 227 228 229
f 230 231 232
f 215 209 211
f 215 211 216
f 210 212 214
f 210 214 211
f 213 218 220
f 213 220 214
f 219 217 216
f 219 216 220
f 227 215 217
f 227 217 228
f 218 230 232
f 218 232 219
f 231 229 228
f 231 228 232
f 221 227 229
f 221 229 222
f 230 224 226
f 230 226 231
f 225 223 222
f 225 222 226
f 209 221 223
f 209 223 210
f 224 213 212
f 224 212 225
f 215 227 221
f 215 221 209
f 211 214 220
f 211 220 216
f 223 225 212
f 223 212 210
f 230 218 213
f 230 213 224
f 217 219 232
f 217 232 228
f 229 231 226
f 229 226 222

o Chaser_Knee_Starboard
usemtl MAT_Chaser_CrimsonArmor
f 233 234 235
f 236 237 238
f 239 240 241
f 242 243 244
f 245 246 247
f 248 249 250
f 251 252 253
f 254 255 256
f 239 233 235
f 239 235 240
f 234 236 238
f 234 238 235
f 237 242 244
f 237 244 238
f 243 241 240
f 243 240 244
f 251 239 241
f 251 241 252
f 242 254 256
f 242 256 243
f 255 253 252
f 255 252 256
f 245 251 253
f 245 253 246
f 254 248 250
f 254 250 255
f 249 247 246
f 249 246 250
f 233 245 247
f 233 247 234
f 248 237 236
f 248 236 249
f 239 251 245
f 239 245 233
f 235 238 244
f 235 244 240
f 247 249 236
f 247 236 234
f 254 242 237
f 254 237 248
f 241 243 256
f 241 256 252
f 253 255 250
f 253 250 246

o Chaser_Leg_Port
usemtl MAT_Chaser_CharcoalJoints
f 257 258 259
f 260 261 262
f 263 264 265
f 266 267 268
f 269 270 271
f 272 273 274
f 275 276 277
f 278 279 280
f 263 257 259
f 263 259 264
f 258 260 262
f 258 262 259
f 261 266 268
f 261 268 262
f 267 265 264
f 267 264 268
f 275 263 265
f 275 265 276
f 266 278 280
f 266 280 267
f 279 277 276
f 279 276 280
f 269 275 277
f 269 277 270
f 278 272 274
f 278 274 279
f 273 271 270
f 273 270 274
f 257 269 271
f 257 271 258
f 272 261 260
f 272 260 273
f 263 275 269
f 263 269 257
f 259 262 268
f 259 268 264
f 271 273 260
f 271 260 258
f 278 266 261
f 278 261 272
f 265 267 280
f 265 280 276
f 277 279 274
f 277 274 270

o Chaser_Leg_Starboard
usemtl MAT_Chaser_CharcoalJoints
f 281 282 283
f 284 285 286
f 287 288 289
f 290 291 292
f 293 294 295
f 296 297 298
f 299 300 301
f 302 303 304
f 287 281 283
f 287 283 288
f 282 284 286
f 282 286 283
f 285 290 292
f 285 292 286
f 291 289 288
f 291 288 292
f 299 287 289
f 299 289 300
f 290 302 304
f 290 304 291
f 303 301 300
f 303 300 304
f 293 299 301
f 293 301 294
f 302 296 298
f 302 298 303
f 297 295 294
f 297 294 298
f 281 293 295
f 281 295 282
f 296 285 284
f 296 284 297
f 287 299 293
f 287 293 281
f 283 286 292
f 283 292 288
f 295 297 284
f 295 284 282
f 302 290 285
f 302 285 296
f 289 291 304
f 289 304 300
f 301 303 298
f 301 298 294

o Chaser_Pelvis
usemtl MAT_Chaser_DeepRedArmor
f 305 306 307
f 308 309 310
f 311 312 313
f 314 315 316
f 317 318 319
f 320 321 322
f 323 324 325
f 326 327 328
f 311 305 307
f 311 307 312
f 306 308 310
f 306 310 307
f 309 314 316
f 309 316 310
f 315 313 312
f 315 312 316
f 323 311 313
f 323 313 324
f 314 326 328
f 314 328 315
f 327 325 324
f 327 324 328
f 317 323 325
f 317 325 318
f 326 320 322
f 326 322 327
f 321 319 318
f 321 318 322
f 305 317 319
f 305 319 306
f 320 309 308
f 320 308 321
f 311 323 317
f 311 317 305
f 307 310 316
f 307 316 312
f 319 321 308
f 319 308 306
f 326 314 309
f 326 309 320
f 313 315 328
f 313 328 324
f 325 327 322
f 325 322 318

o Chaser_ShoulderSpike_Port
usemtl MAT_Chaser_DeepRedArmor
f 329 330 331
f 331 330 332
f 332 330 333
f 333 330 334
f 335 329 331
f 331 332 333
f 333 334 335
f 331 333 335
f 334 330 335
f 335 330 329

o Chaser_ShoulderSpike_Starboard
usemtl MAT_Chaser_DeepRedArmor
f 336 337 338
f 338 337 339
f 339 337 340
f 340 337 341
f 342 336 338
f 338 339 340
f 340 341 342
f 338 340 342
f 341 337 342
f 342 337 336

o Chaser_Shoulder_Port
usemtl MAT_Chaser_CrimsonArmor
f 343 344 345
f 346 347 348
f 349 350 351
f 352 353 354
f 355 356 357
f 358 359 360
f 361 362 363
f 364 365 366
f 349 343 345
f 349 345 350
f 344 346 348
f 344 348 345
f 347 352 354
f 347 354 348
f 353 351 350
f 353 350 354
f 361 349 351
f 361 351 362
f 352 364 366
f 352 366 353
f 365 363 362
f 365 362 366
f 355 361 363
f 355 363 356
f 364 358 360
f 364 360 365
f 359 357 356
f 359 356 360
f 343 355 357
f 343 357 344
f 358 347 346
f 358 346 359
f 349 361 355
f 349 355 343
f 345 348 354
f 345 354 350
f 357 359 346
f 357 346 344
f 364 352 347
f 364 347 358
f 351 353 366
f 351 366 362
f 363 365 360
f 363 360 356

o Chaser_Shoulder_Starboard
usemtl MAT_Chaser_CrimsonArmor
f 367 368 369
f 370 371 372
f 373 374 375
f 376 377 378
f 379 380 381
f 382 383 384
f 385 386 387
f 388 389 390
f 373 367 369
f 373 369 374
f 368 370 372
f 368 372 369
f 371 376 378
f 371 378 372
f 377 375 374
f 377 374 378
f 385 373 375
f 385 375 386
f 376 388 390
f 376 390 377
f 389 387 386
f 389 386 390
f 379 385 387
f 379 387 380
f 388 382 384
f 388 384 389
f 383 381 380
f 383 380 384
f 367 379 381
f 367 381 368
f 382 371 370
f 382 370 383
f 373 385 379
f 373 379 367
f 369 372 378
f 369 378 374
f 381 383 370
f 381 370 368
f 388 376 371
f 388 371 382
f 375 377 390
f 375 390 386
f 387 389 384
f 387 384 380

o Chaser_Torso
usemtl MAT_Chaser_CrimsonArmor
f 391 392 393
f 394 395 396
f 397 398 399
f 400 401 402
f 403 404 405
f 406 407 408
f 409 410 411
f 412 413 414
f 397 391 393
f 397 393 398
f 392 394 396
f 392 396 393
f 395 400 402
f 395 402 396
f 401 399 398
f 401 398 402
f 409 397 399
f 409 399 410
f 400 412 414
f 400 414 401
f 413 411 410
f 413 410 414
f 403 409 411
f 403 411 404
f 412 406 408
f 412 408 413
f 407 405 404
f 407 404 408
f 391 403 405
f 391 405 392
f 406 395 394
f 406 394 407
f 397 409 403
f 397 403 391
f 393 396 402
f 393 402 398
f 405 407 394
f 405 394 392
f 412 400 395
f 412 395 406
f 399 401 414
f 399 414 410
f 411 413 408
f 411 408 404

o Chaser_Tusk_Port
usemtl MAT_Chaser_PaleClaws
f 415 416 417
f 417 416 418
f 418 416 419
f 419 416 420
f 421 415 417
f 417 418 419
f 419 420 421
f 417 419 421
f 420 416 421
f 421 416 415

o Chaser_Tusk_Starboard
usemtl MAT_Chaser_PaleClaws
f 422 423 424
f 424 423 425
f 425 423 426
f 426 423 427
f 428 422 424
f 424 425 426
f 426 427 428
f 424 426 428
f 427 423 428
f 428 423 422

o Chaser_Visor
usemtl MAT_Chaser_HotPinkVisor
f 429 430 431
f 432 433 434
f 435 436 437
f 438 439 440
f 441 442 443
f 444 445 446
f 447 448 449
f 450 451 452
f 435 429 431
f 435 431 436
f 430 432 434
f 430 434 431
f 433 438 440
f 433 440 434
f 439 437 436
f 439 436 440
f 447 435 437
f 447 437 448
f 438 450 452
f 438 452 439
f 451 449 448
f 451 448 452
f 441 447 449
f 441 449 442
f 450 444 446
f 450 446 451
f 445 443 442
f 445 442 446
f 429 441 443
f 429 443 430
f 444 433 432
f 444 432 445
f 435 447 441
f 435 441 429
f 431 434 440
f 431 440 436
f 443 445 432
f 443 432 430
f 450 438 433
f 450 433 444
f 437 439 452
f 437 452 448
f 449 451 446
f 449 446 442
