# Compact triangulated authored enemy model: enemy_skirmisher
mtllib enemy_skirmisher.mtl
s off

v -2.000000 0.000000 41.500000
v 6.293793 -4.789677 44.412243
v -5.167883 -7.749927 44.412239
v 12.110342 -8.148743 52.279221
v 14.587633 0.000000 50.748150
v -12.251731 0.000000 44.412292
v -5.167883 7.749927 44.412239
v 6.293793 4.789677 44.412243
v 16.545628 -4.789696 61.000000
v -7.389566 -13.185063 52.279213
v 3.125942 -12.539680 50.748116
v -2.000000 -15.499999 61.000000
v -19.441311 0.000000 52.279297
v -15.419693 -7.749952 50.748146
v -20.545628 -4.789696 61.000000
v -7.389566 13.185063 52.279213
v -15.419693 7.749952 50.748146
v -13.461820 12.539759 61.000000
v 12.110342 8.148743 52.279221
v 3.125942 12.539680 50.748116
v 9.461820 12.539759 61.000000
v 9.461820 -12.539759 61.000000
v -13.461820 -12.539759 61.000000
v -20.545628 4.789696 61.000000
v -2.000000 15.499999 61.000000
v 16.545628 4.789696 61.000000
v 3.389566 -13.185063 69.720787
v 11.419693 -7.749952 71.251854
v 1.167883 -7.749927 77.587761
v -16.110342 -8.148743 69.720779
v -7.125942 -12.539680 71.251884
v -10.293793 -4.789677 77.587753
v -16.110342 8.148743 69.720779
v -18.587633 0.000000 71.251846
v -10.293793 4.789677 77.587753
v 3.389566 13.185063 69.720787
v -7.125942 12.539680 71.251884
v 1.167883 7.749927 77.587761
v 15.441311 0.000000 69.720703
v 11.419693 7.749952 71.251854
v 8.251731 0.000000 77.587708
v -2.000000 0.000000 80.500000
v -9.000000 4.500000 75.000000
v -9.000000 0.000000 93.000000
v -5.102886 2.250000 75.000000
v -5.102886 -2.250000 75.000000
v -9.000000 -4.500000 75.000000
v -12.897114 -2.250000 75.000000
v -12.897114 2.250000 75.000000
v 29.400002 -5.000000 61.500000
v 29.400002 -5.500000 62.000000
v 28.900002 -5.000000 62.000000
v 29.400002 -5.500000 66.000000
v 29.400002 -5.000000 66.500000
v 28.900002 -5.000000 66.000000
v 29.400002 5.000000 61.500000
v 28.900002 5.000000 62.000000
v 29.400002 5.500000 62.000000
v 29.400002 5.000000 66.500000
v 29.400002 5.500000 66.000000
v 28.900002 5.000000 66.000000
v 30.000000 -5.000000 61.500000
v 30.500000 -5.000000 62.000000
v 30.000000 -5.500000 62.000000
v 30.000000 -5.000000 66.500000
v 30.000000 -5.500000 66.000000
v 30.500000 -5.000000 66.000000
v 30.000000 5.000000 61.500000
v 30.000000 5.500000 62.000000
v 30.500000 5.000000 62.000000
v 30.000000 5.000000 66.500000
v 30.500000 5.000000 66.000000
v 30.000000 5.500000 66.000000
v -16.000000 -8.000000 50.000000
v -16.000000 -12.000000 54.000000
v -20.000000 -8.000000 54.000000
v -16.000000 -12.000000 68.000000
v -16.000000 -8.000000 72.000000
v -20.000000 -8.000000 68.000000
v -16.000000 8.000000 50.000000
v -20.000000 8.000000 54.000000
v -16.000000 12.000000 54.000000
v -16.000000 8.000000 72.000000
v -16.000000 12.000000 68.000000
v -20.000000 8.000000 68.000000
v 18.000000 -8.000000 50.000000
v 22.000000 -8.000000 54.000000
v 18.000000 -12.000000 54.000000
v 18.000000 -8.000000 72.000000
v 18.000000 -12.000000 68.000000
v 22.000000 -8.000000 68.000000
v 18.000000 8.000000 50.000000
v 18.000000 12.000000 54.000000
v 22.000000 8.000000 54.000000
v 18.000000 8.000000 72.000000
v 22.000000 8.000000 68.000000
v 18.000000 12.000000 68.000000
v 19.250000 37.599998 59.000000
v 20.750000 37.599998 59.000000
v 20.750000 36.545586 56.454414
v 19.250000 36.545586 56.454414
v 20.750000 34.000000 55.400002
v 19.250000 34.000000 55.400002
v 20.750000 31.454416 56.454414
v 19.250000 31.454416 56.454414
v 20.750000 30.400000 59.000000
v 19.250000 30.400000 59.000000
v 20.750000 31.454416 61.545586
v 19.250000 31.454416 61.545586
v 20.750000 34.000000 62.599998
v 19.250000 34.000000 62.599998
v 20.750000 36.545586 61.545586
v 19.250000 36.545586 61.545586
v 19.250000 -30.400000 59.000000
v 20.750000 -30.400000 59.000000
v 20.750000 -31.454416 56.454414
v 19.250000 -31.454416 56.454414
v 20.750000 -34.000000 55.400002
v 19.250000 -34.000000 55.400002
v 20.750000 -36.545586 56.454414
v 19.250000 -36.545586 56.454414
v 20.750000 -37.599998 59.000000
v 19.250000 -37.599998 59.000000
v 20.750000 -36.545586 61.545586
v 19.250000 -36.545586 61.545586
v 20.750000 -34.000000 62.599998
v 19.250000 -34.000000 62.599998
v 20.750000 -31.454416 61.545586
v 19.250000 -31.454416 61.545586
v 12.500000 41.000000 59.000000
v 19.500000 37.500000 59.000000
v 19.500000 36.474873 56.525127
v 12.500000 38.949749 54.050251
v 19.500000 34.000000 55.500000
v 12.500000 34.000000 52.000000
v 19.500000 31.525126 56.525127
v 12.500000 29.050253 54.050251
v 19.500000 30.500000 59.000000
v 12.500000 27.000000 59.000000
v 19.500000 31.525126 61.474873
v 12.500000 29.050253 63.949749
v 19.500000 34.000000 62.500000
v 12.500000 34.000000 66.000000
v 19.500000 36.474873 61.474873
v 12.500000 38.949749 63.949749
v 12.500000 -27.000000 59.000000
v 19.500000 -30.500000 59.000000
v 19.500000 -31.525126 56.525127
v 12.500000 -29.050253 54.050251
v 19.500000 -34.000000 55.500000
v 12.500000 -34.000000 52.000000
v 19.500000 -36.474873 56.525127
v 12.500000 -38.949749 54.050251
v 19.500000 -37.500000 59.000000
v 12.500000 -41.000000 59.000000
v 19.500000 -36.474873 61.474873
v 12.500000 -38.949749 63.949749
v 19.500000 -34.000000 62.500000
v 12.500000 -34.000000 66.000000
v 19.500000 -31.525126 61.474873
v 12.500000 -29.050253 63.949749
v -17.000000 41.000000 59.000000
v 15.000000 41.000000 59.000000
v 15.000000 38.949749 54.050251
v -17.000000 38.949749 54.050255
v 15.000000 34.000000 52.000000
v -17.000000 34.000000 52.000000
v 15.000000 29.050253 54.050251
v -17.000000 29.050253 54.050255
v 15.000000 27.000000 59.000000
v -17.000000 27.000000 59.000000
v 15.000000 29.050253 63.949745
v -17.000000 29.050253 63.949749
v 15.000000 34.000000 66.000000
v -17.000000 34.000000 66.000000
v 15.000000 38.949749 63.949745
v -17.000000 38.949749 63.949749
v -17.000000 -27.000000 59.000000
v 15.000000 -27.000000 59.000000
v 15.000000 -29.050253 54.050251
v -17.000000 -29.050253 54.050255
v 15.000000 -34.000000 52.000000
v -17.000000 -34.000000 52.000000
v 15.000000 -38.949749 54.050251
v -17.000000 -38.949749 54.050255
v 15.000000 -41.000000 59.000000
v -17.000000 -41.000000 59.000000
v 15.000000 -38.949749 63.949745
v -17.000000 -38.949749 63.949749
v 15.000000 -34.000000 66.000000
v -17.000000 -34.000000 66.000000
v 15.000000 -29.050253 63.949745
v -17.000000 -29.050253 63.949749
v 18.000000 10.000000 55.000000
v 29.000000 5.000000 55.000000
v 29.000000 -5.000000 55.000000
v 18.000000 -10.000000 55.000000
v 18.000000 -10.000000 70.000000
v 29.000000 -5.000000 70.000000
v 29.000000 5.000000 70.000000
v 18.000000 10.000000 70.000000
v -28.000000 18.000000 64.000000
v -15.000000 19.000000 64.000000
v -8.000000 9.000000 64.000000
v -25.000000 7.000000 64.000000
v -25.000000 7.000000 79.000000
v -8.000000 9.000000 79.000000
v -15.000000 19.000000 79.000000
v -28.000000 18.000000 79.000000
v -25.000000 -7.000000 64.000000
v -8.000000 -9.000000 64.000000
v -15.000000 -19.000000 64.000000
v -28.000000 -18.000000 64.000000
v -28.000000 -18.000000 79.000000
v -15.000000 -19.000000 79.000000
v -8.000000 -9.000000 79.000000
v -25.000000 -7.000000 79.000000
v -7.000000 12.000000 18.000000
v -7.000000 17.500000 32.000000
v -2.236860 14.750000 32.000000
v -2.236860 9.250000 32.000000
v -7.000000 6.500000 32.000000
v -11.763140 9.250000 32.000000
v -11.763140 14.750000 32.000000
v -7.000000 -12.000000 18.000000
v -7.000000 -6.500000 32.000000
v -2.236860 -9.250000 32.000000
v -2.236860 -14.750000 32.000000
v -7.000000 -17.500000 32.000000
v -11.763140 -14.750000 32.000000
v -11.763140 -9.250000 32.000000
v 11.000000 14.000000 62.000000
v 17.000000 20.000000 62.000000
v -5.000000 42.000000 62.000000
v -18.000000 39.000000 62.000000
v -7.000000 16.000000 62.000000
v 17.000000 20.000000 64.500000
v 11.000000 14.000000 64.500000
v -7.000000 16.000000 64.500000
v -18.000000 39.000000 64.500000
v -5.000000 42.000000 64.500000
v 17.000000 -20.000000 62.000000
v 11.000000 -14.000000 62.000000
v -7.000000 -16.000000 62.000000
v -18.000000 -39.000000 62.000000
v -5.000000 -42.000000 62.000000
v 11.000000 -14.000000 64.500000
v 17.000000 -20.000000 64.500000
v -5.000000 -42.000000 64.500000
v -18.000000 -39.000000 64.500000
v -7.000000 -16.000000 64.500000
v 15.000000 9.000000 55.000000
v 23.000000 18.000000 55.000000
v -5.000000 49.000000 55.000000
v -25.000000 45.000000 55.000000
v -10.000000 10.000000 55.000000
v 23.000000 18.000000 62.000000
v 15.000000 9.000000 62.000000
v -10.000000 10.000000 62.000000
v -25.000000 45.000000 62.000000
v -5.000000 49.000000 62.000000
v 23.000000 -18.000000 55.000000
v 15.000000 -9.000000 55.000000
v -10.000000 -10.000000 55.000000
v -25.000000 -45.000000 55.000000
v -5.000000 -49.000000 55.000000
v 15.000000 -9.000000 62.000000
v 23.000000 -18.000000 62.000000
v -5.000000 -49.000000 62.000000
v -25.000000 -45.000000 62.000000
v -10.000000 -10.000000 62.000000

o Skirmisher_Core
usemtl MAT_Skirmisher_DeepViolet
f 1 2 3
f 4 2 5
f 1 3 6
f 1 6 7
f 1 7 8
f 4 5 9
f 10 11 12
f 13 14 15
f 16 17 18
f 19 20 21
f 4 9 22
f 10 12 23
f 13 15 24
f 16 18 25
f 19 21 26
f 27 28 29
f 30 31 32
f 33 34 35
f 36 37 38
f 39 40 41
f 41 38 42
f 41 40 38
f 40 36 38
f 38 35 42
f 38 37 35
f 37 33 35
f 35 32 42
f 35 34 32
f 34 30 32
f 32 29 42
f 32 31 29
f 31 27 29
f 29 41 42
f 29 28 41
f 28 39 41
f 26 40 39
f 26 21 40
f 21 36 40
f 25 37 36
f 25 18 37
f 18 33 37
f 24 34 33
f 24 15 34
f 15 30 34
f 23 31 30
f 23 12 31
f 12 27 31
f 22 28 27
f 22 9 28
f 9 39 28
f 21 25 36
f 21 20 25
f 20 16 25
f 18 24 33
f 18 17 24
f 17 13 24
f 15 23 30
f 15 14 23
f 14 10 23
f 12 22 27
f 12 11 22
f 11 4 22
f 9 26 39
f 9 5 26
f 5 19 26
f 8 20 19
f 8 7 20
f 7 16 20
f 7 17 16
f 7 6 17
f 6 13 17
f 6 14 13
f 6 3 14
f 3 10 14
f 5 8 19
f 5 2 8
f 2 1 8
f 3 11 10
f 3 2 11
f 2 4 11

o Skirmisher_DorsalAntenna
usemtl MAT_Skirmisher_LavenderPanels
f 43 44 45
f 45 44 46
f 46 44 47
f 47 44 48
f 49 43 45
f 45 46 47
f 47 48 49
f 45 47 49
f 48 44 49
f 49 44 43

o Skirmisher_Eye
usemtl MAT_Skirmisher_CyanEnergy
f 50 51 52
f 53 54 55
f 56 57 58
f 59 60 61
f 62 63 64
f 65 66 67
f 68 69 70
f 71 72 73
f 56 50 52
f 56 52 57
f 51 53 55
f 51 55 52
f 54 59 61
f 54 61 55
f 60 58 57
f 60 57 61
f 68 56 58
f 68 58 69
f 59 71 73
f 59 73 60
f 72 70 69
f 72 69 73
f 62 68 70
f 62 70 63
f 71 65 67
f 71 67 72
f 66 64 63
f 66 63 67
f 50 62 64
f 50 64 51
f 65 54 53
f 65 53 66
f 56 68 62
f 56 62 50
f 52 55 61
f 52 61 57
f 64 66 53
f 64 53 51
f 71 59 54
f 71 54 65
f 58 60 73
f 58 73 69
f 70 72 67
f 70 67 63

o Skirmisher_Hull
usemtl MAT_Skirmisher_VioletArmor
f 74 75 76
f 77 78 79
f 80 81 82
f 83 84 85
f 86 87 88
f 89 90 91
f 92 93 94
f 95 96 97
f 80 74 76
f 80 76 81
f 75 77 79
f 75 79 76
f 78 83 85
f 78 85 79
f 84 82 81
f 84 81 85
f 92 80 82
f 92 82 93
f 83 95 97
f 83 97 84
f 96 94 93
f 96 93 97
f 86 92 94
f 86 94 87
f 95 89 91
f 95 91 96
f 90 88 87
f 90 87 91
f 74 86 88
f 74 88 75
f 89 78 77
f 89 77 90
f 80 92 86
f 80 86 74
f 76 79 85
f 76 85 81
f 88 90 77
f 88 77 75
f 95 83 78
f 95 78 89
f 82 84 97
f 82 97 93
f 94 96 91
f 94 91 87

o Skirmisher_MuzzleGlow_Port
usemtl MAT_Skirmisher_CyanEnergy
f 98 99 100
f 98 100 101
f 101 100 102
f 101 102 103
f 103 102 104
f 103 104 105
f 105 104 106
f 105 106 107
f 107 106 108
f 107 108 109
f 109 108 110
f 109 110 111
f 102 100 99
f 99 112 110
f 110 108 106
f 106 104 102
f 102 99 110
f 110 106 102
f 111 110 112
f 111 112 113
f 113 112 99
f 113 99 98
f 113 98 101
f 101 103 105
f 105 107 109
f 109 111 113
f 113 101 105
f 105 109 113

o Skirmisher_MuzzleGlow_Starboard
usemtl MAT_Skirmisher_CyanEnergy
f 114 115 116
f 114 116 117
f 117 116 118
f 117 118 119
f 119 118 120
f 119 120 121
f 121 120 122
f 121 122 123
f 123 122 124
f 123 124 125
f 125 124 126
f 125 126 127
f 118 116 115
f 115 128 126
f 126 124 122
f 122 120 118
f 118 115 126
f 126 122 118
f 127 126 128
f 127 128 129
f 129 128 115
f 129 115 114
f 129 114 117
f 117 119 121
f 121 123 125
f 125 127 129
f 129 117 121
f 121 125 129

o Skirmisher_Muzzle_Port
usemtl MAT_Skirmisher_VioletArmor
f 130 131 132
f 130 132 133
f 133 132 134
f 133 134 135
f 135 134 136
f 135 136 137
f 137 136 138
f 137 138 139
f 139 138 140
f 139 140 141
f 141 140 142
f 141 142 143
f 134 132 131
f 131 144 142
f 142 140 138
f 138 136 134
f 134 131 142
f 142 138 134
f 143 142 144
f 143 144 145
f 145 144 131
f 145 131 130
f 145 130 133
f 133 135 137
f 137 139 141
f 141 143 145
f 145 133 137
f 137 141 145

o Skirmisher_Muzzle_Starboard
usemtl MAT_Skirmisher_VioletArmor
f 146 147 148
f 146 148 149
f 149 148 150
f 149 150 151
f 151 150 152
f 151 152 153
f 153 152 154
f 153 154 155
f 155 154 156
f 155 156 157
f 157 156 158
f 157 158 159
f 150 148 147
f 147 160 158
f 158 156 154
f 154 152 150
f 150 147 158
f 158 154 150
f 159 158 160
f 159 160 161
f 161 160 147
f 161 147 146
f 161 146 149
f 149 151 153
f 153 155 157
f 157 159 161
f 161 149 153
f 153 157 161

o Skirmisher_Nacelle_Port
usemtl MAT_Skirmisher_DarkMechanisms
f 162 163 164
f 162 164 165
f 165 164 166
f 165 166 167
f 167 166 168
f 167 168 169
f 169 168 170
f 169 170 171
f 171 170 172
f 171 172 173
f 173 172 174
f 173 174 175
f 166 164 163
f 163 176 174
f 174 172 170
f 170 168 166
f 166 163 174
f 174 170 166
f 175 174 176
f 175 176 177
f 177 176 163
f 177 163 162
f 177 162 165
f 165 167 169
f 169 171 173
f 173 175 177
f 177 165 169
f 169 173 177

o Skirmisher_Nacelle_Starboard
usemtl MAT_Skirmisher_DarkMechanisms
f 178 179 180
f 178 180 181
f 181 180 182
f 181 182 183
f 183 182 184
f 183 184 185
f 185 184 186
f 185 186 187
f 187 186 188
f 187 188 189
f 189 188 190
f 189 190 191
f 182 180 179
f 179 192 190
f 190 188 186
f 186 184 182
f 182 179 190
f 190 186 182
f 191 190 192
f 191 192 193
f 193 192 179
f 193 179 178
f 193 178 181
f 181 183 185
f 185 187 189
f 189 191 193
f 193 181 185
f 185 189 193

o Skirmisher_NoseArmor
usemtl MAT_Skirmisher_LavenderPanels
f 194 195 196
f 194 196 197
f 198 199 200
f 198 200 201
f 197 196 199
f 197 199 198
f 196 195 200
f 196 200 199
f 195 194 201
f 195 201 200
f 194 197 198
f 194 198 201

o Skirmisher_RearFin_Port
usemtl MAT_Skirmisher_DeepViolet
f 202 203 204
f 202 204 205
f 206 207 208
f 206 208 209
f 205 204 207
f 205 207 206
f 204 203 208
f 204 208 207
f 203 202 209
f 203 209 208
f 202 205 206
f 202 206 209

o Skirmisher_RearFin_Starboard
usemtl MAT_Skirmisher_DeepViolet
f 210 211 212
f 210 212 213
f 214 215 216
f 214 216 217
f 213 212 215
f 213 215 214
f 212 211 216
f 212 216 215
f 211 210 217
f 211 217 216
f 210 213 214
f 210 214 217

o Skirmisher_Thruster_Port
usemtl MAT_Skirmisher_CyanEnergy
f 218 219 220
f 218 220 221
f 218 221 222
f 218 222 223
f 221 220 219
f 219 224 223
f 223 222 221
f 219 223 221
f 218 223 224
f 218 224 219

o Skirmisher_Thruster_Starboard
usemtl MAT_Skirmisher_CyanEnergy
f 225 226 227
f 225 227 228
f 225 228 229
f 225 229 230
f 228 227 226
f 226 231 230
f 230 229 228
f 226 230 228
f 225 230 231
f 225 231 226

o Skirmisher_WingInset_Port
usemtl MAT_Skirmisher_LavenderPanels
f 232 233 234
f 234 235 236
f 234 236 232
f 237 238 239
f 239 240 241
f 239 241 237
f 232 236 239
f 232 239 238
f 236 235 240
f 236 240 239
f 235 234 241
f 235 241 240
f 234 233 237
f 234 237 241
f 233 232 238
f 233 238 237

o Skirmisher_WingInset_Starboard
usemtl MAT_Skirmisher_LavenderPanels
f 242 243 244
f 244 245 246
f 244 246 242
f 247 248 249
f 249 250 251
f 249 251 247
f 242 246 249
f 242 249 248
f 246 245 250
f 246 250 249
f 245 244 251
f 245 251 250
f 244 243 247
f 244 247 251
f 243 242 248
f 243 248 247

o Skirmisher_Wing_Port
usemtl MAT_Skirmisher_VioletArmor
f 252 253 254
f 254 255 256
f 254 256 252
f 257 258 259
f 259 260 261
f 259 261 257
f 252 256 259
f 252 259 258
f 256 255 260
f 256 260 259
f 255 254 261
f 255 261 260
f 254 253 257
f 254 257 261
f 253 252 258
f 253 258 257

o Skirmisher_Wing_Starboard
usemtl MAT_Skirmisher_VioletArmor
f 262 263 264
f 264 265 266
f 264 266 262
f 267 268 269
f 269 270 271
f 269 271 267
f 262 266 269
f 262 269 268
f 266 265 270
f 266 270 269
f 265 264 271
f 265 271 270
f 264 263 267
f 264 267 271
f 263 262 268
f 263 268 267
